<svg width="30" height="29" viewBox="0 0 30 29" fill="none" xmlns="http://www.w3.org/2000/svg">
<path d="M15.6002 24.6757L15.0908 28.1532C19.1616 26.688 22.7884 24.4347 25.6912 21.5673C28.0084 19.036 29.1771 15.8617 28.9782 12.6395C28.8452 9.43975 27.2459 6.41668 24.5321 4.23531C21.8183 2.05394 18.2123 0.892959 14.5073 1.00777C10.8024 1.12259 7.30197 2.50379 4.77617 4.84753C2.25038 7.19127 0.906087 10.3056 1.03903 13.5053C1.31842 19.6937 8.27033 24.9028 15.6002 24.6757Z" stroke="#939393" stroke-width="1.5" stroke-linecap="round" stroke-linejoin="round"/>
<path d="M8.38542 14.7544C9.29309 14.7544 10.0289 14.1189 10.0289 13.335C10.0289 12.5511 9.29309 11.9156 8.38542 11.9156C7.47775 11.9156 6.74194 12.5511 6.74194 13.335C6.74194 14.1189 7.47775 14.7544 8.38542 14.7544Z" fill="#939393"/>
<path d="M15.0414 14.6832C15.949 14.6832 16.6848 14.0477 16.6848 13.2638C16.6848 12.48 15.949 11.8445 15.0414 11.8445C14.1337 11.8445 13.3979 12.48 13.3979 13.2638C13.3979 14.0477 14.1337 14.6832 15.0414 14.6832Z" fill="#939393"/>
<path d="M21.7961 14.6267C22.7038 14.6267 23.4396 13.9912 23.4396 13.2073C23.4396 12.4234 22.7038 11.788 21.7961 11.788C20.8885 11.788 20.1526 12.4234 20.1526 13.2073C20.1526 13.9912 20.8885 14.6267 21.7961 14.6267Z" fill="#939393"/>
</svg>
